<?xml version="1.0" standalone="no"?>
<!DOCTYPE svg PUBLIC "-//W3C//DTD SVG 20010904//EN"
 "http://www.w3.org/TR/2001/REC-SVG-20010904/DTD/svg10.dtd">
<svg version="1.0" xmlns="http://www.w3.org/2000/svg"
 width="512.000000pt" height="512.000000pt" viewBox="0 0 512.000000 512.000000"
 preserveAspectRatio="xMidYMid meet">

<g transform="translate(0.000000,512.000000) scale(0.100000,-0.100000)"
fill="#000000" stroke="none">
<path d="M707 5110 c-332 -41 -591 -270 -679 -600 l-23 -85 0 -1865 0 -1865
23 -85 c79 -297 285 -503 582 -582 l85 -23 1120 0 1120 0 37 23 c51 32 76 96
59 154 -16 51 -48 83 -97 97 -27 8 -380 11 -1124 11 -1036 0 -1088 1 -1152 19
-87 25 -151 63 -218 131 -68 67 -106 131 -131 218 -18 65 -19 128 -19 1902 0
1774 1 1837 19 1902 34 117 106 216 208 284 106 70 139 77 408 83 209 5 245 8
268 24 88 57 88 187 0 244 -23 16 -53 18 -223 20 -107 1 -226 -3 -263 -7z"/>
<path d="M2104 5109 c-42 -12 -82 -54 -95 -99 -21 -70 25 -149 100 -170 23 -6
436 -10 1161 -10 1076 0 1128 -1 1192 -19 87 -25 151 -63 218 -131 68 -67 106
-131 131 -218 18 -65 19 -128 19 -1902 0 -1774 -1 -1837 -19 -1902 -25 -87
-63 -151 -131 -218 -67 -68 -131 -106 -218 -131 -57 -16 -101 -19 -292 -19
-124 0 -242 -5 -262 -10 -21 -6 -50 -26 -68 -47 -30 -34 -32 -40 -28 -96 4
-53 8 -63 40 -93 47 -43 94 -48 367 -41 176 4 231 9 296 26 291 77 499 286
577 581 l23 85 0 1865 0 1865 -23 85 c-78 294 -281 499 -577 582 l-80 23
-1150 2 c-678 1 -1163 -2 -1181 -8z"/>
<path d="M2456 3475 c-824 -321 -1518 -596 -1542 -610 -155 -91 -146 -343 15
-424 20 -10 171 -58 336 -106 165 -48 304 -91 308 -95 4 -4 50 -166 102 -361
52 -195 101 -368 109 -385 55 -119 195 -181 326 -144 51 14 81 38 266 215 103
98 170 155 178 152 8 -3 188 -141 400 -306 212 -166 404 -311 428 -323 67 -35
180 -38 250 -6 29 14 67 36 83 51 73 61 68 42 342 1344 193 918 256 1237 257
1294 1 66 -3 82 -30 135 -34 65 -101 124 -164 143 -20 6 -66 11 -101 11 -60
-1 -146 -33 -1563 -585z m1580 288 c-3 -10 -118 -558 -255 -1217 -138 -660
-253 -1202 -256 -1205 -9 -8 -19 -1 -474 353 -236 184 -438 339 -450 345 -26
14 -97 14 -124 -1 -12 -6 -50 -36 -84 -66 -43 -37 -64 -50 -67 -41 -13 38 -36
162 -36 189 0 17 7 44 15 60 8 16 322 283 715 610 385 320 700 586 700 590 0
9 -28 40 -36 40 -10 0 -1622 -986 -1642 -1005 -40 -38 -37 -72 37 -380 l69
-290 -54 -55 c-29 -30 -55 -52 -58 -49 -2 2 -50 175 -106 384 -56 208 -109
391 -117 406 -9 16 -30 35 -47 44 -17 9 -156 53 -309 98 -152 45 -278 86 -280
90 -2 8 2826 1116 2851 1117 8 0 11 -7 8 -17z"/>
</g>
</svg>
